:FULLY-SPECIFIED
:FORCE-ALL-JOINTS-BE-3DOF
:DEGREES
544
root 8.13969 14.1307 -3.57642 -179.948 48.0339 177.558
lfemur -33.0809 -5.88792 -16.1368
ltibia 86.6144 -0 0
lfoot -38.2665 -10.7889 0.178798
ltoes -4.14193 0 0
rfemur -48.9238 -6.58982 -3.15878
rtibia 62.3095 -0 0
rfoot -7.30364 1.7245 0.268294
rtoes -38.773 0 0
lowerback 12.8569 0.656182 1.69313
upperback 6.63043 1.98285 6.80418
thorax -0.42449 1.26363 5.93389
lowerneck -2.42194 -15.6778 -5.90892
upperneck 8.9081 -21.2641 8.26862
head 4.5917 -10.2922 2.16394
lclavicle 9.85972e-14 6.36111e-15 0
lhumerus -45.5069 -13.5346 104.659
lradius 55.9697 -0 0
lwrist 29.6577 0 0
lhand -23.3968 -3.26974 -0.0410239
lfingers 7.12502 -0 0
lthumb 3.0593 26.6671 -0.0418097
rclavicle 9.85972e-14 6.36111e-15 0
rhumerus 7.49718 18.7343 -87.2094
rradius 134.999 -0 0
rwrist -45.2959 0 0
rhand -28.0606 -22.6019 0.0153357
rfingers 7.12502 -0 0
rthumb -1.44445 -52.5578 0.0152916
545
root 8.20732 14.062 -3.53417 179.812 47.4888 177.411
lfemur -33.2696 -5.88852 -15.7764
ltibia 87.3898 -0 0
lfoot -38.7087 -11.6424 0.125774
ltoes -3.96236 0 0
rfemur -48.9814 -7.10349 -3.05646
rtibia 63.3807 -0 0
rfoot -8.45538 1.23449 0.188678
rtoes -38.8796 0 0
lowerback 12.8999 0.638964 1.68285
upperback 6.74445 1.96902 6.80457
thorax -0.326915 1.26104 5.9437
lowerneck -2.22504 -15.6647 -5.86635
upperneck 8.67283 -21.2557 8.44889
head 4.50171 -10.2909 2.2359
lclavicle 9.85972e-14 6.36111e-15 0
lhumerus -45.6675 -12.7499 104.117
lradius 55.7195 -0 0
lwrist 30.3021 0 0
lhand -23.8138 -3.0612 -0.0288661
lfingers 7.12502 -0 0
lthumb 2.6568 26.8872 -0.0294191
rclavicle 9.85972e-14 6.36111e-15 0
rhumerus 7.03238 19.0852 -87.9287
rradius 134.906 -0 0
rwrist -45.1278 0 0
rhand -28.4614 -22.683 0.010791
rfingers 7.12502 -0 0
rthumb -1.83154 -52.6416 0.0107601
546
root 8.27496 13.9932 -3.49191 179.577 46.9432 177.269
lfemur -33.4583 -5.88795 -15.416
ltibia 88.1653 -0 0
lfoot -39.1501 -12.4955 0.0661686
ltoes -3.7828 0 0
rfemur -49.0401 -7.61706 -2.95349
rtibia 64.4519 -0 0
rfoot -9.60639 0.746186 0.0992329
rtoes -38.9863 0 0
lowerback 12.943 0.621754 1.67256
upperback 6.85848 1.95519 6.80494
thorax -0.229341 1.25844 5.95351
lowerneck -2.02814 -15.6517 -5.82374
upperneck 8.43761 -21.2467 8.6291
head 4.41171 -10.2896 2.30787
lclavicle 9.85972e-14 6.36111e-15 0
lhumerus -45.8352 -11.9667 103.575
lradius 55.4694 -0 0
lwrist 30.9465 0 0
lhand -24.2307 -2.85275 -0.0151912
lfingers 7.12502 -0 0
lthumb 2.25436 27.1073 -0.0154823
rclavicle 9.85972e-14 6.36111e-15 0
rhumerus 6.56196 19.4305 -88.6526
rradius 134.813 -0 0
rwrist -44.9596 0 0
rhand -28.8622 -22.7641 0.00567906
rfingers 7.12502 -0 0
rthumb -2.21862 -52.7253 0.00566281
547
root 8.3426 13.9245 -3.44966 -180.653 46.3973 -182.868
lfemur -33.6469 -5.88619 -15.0556
ltibia 88.9407 0 0
lfoot -39.5906 -13.3481 0
ltoes -3.60323 0 0
rfemur -49.0997 -8.13052 -2.84987
rtibia 65.5231 0 0
rfoot -10.7566 0.259778 0
rtoes -39.0929 0 0
lowerback 12.986 0.604552 1.66225
upperback 6.9725 1.94136 6.80527
thorax -0.131767 1.25582 5.96331
lowerneck -1.83125 -15.6388 -5.78109
upperneck 8.20244 -21.237 8.80926
head 4.32172 -10.2881 2.37983
lclavicle 9.85972e-14 6.36111e-15 0
lhumerus -46.01 -11.1851 103.032
lradius 55.2192 0 0
lwrist 31.5909 0 0
lhand -24.6475 -2.6444 0
lfingers 7.12502 0 0
lthumb 1.85197 27.3273 0
rclavicle 9.85972e-14 6.36111e-15 0
rhumerus 6.08594 19.7702 -89.381
rradius 134.72 0 0
rwrist -44.7914 0 0
rhand -29.263 -22.8451 0
rfingers 7.12502 0 0
rthumb -2.6057 -772.809 0
548
root 8.30614 14.0206 -3.4548 179.616 47.3473 177.185
lfemur -33.0297 -5.471 -15.2263
ltibia 87.3327 -0 0
lfoot -39.4381 -12.7007 0.0173059
ltoes -3.6259 0 0
rfemur -49.0059 -8.05567 -2.36261
rtibia 64.0603 -0 0
rfoot -9.64432 0.743862 0.0954138
rtoes -39.0026 0 0
lowerback 12.7488 0.546355 1.51252
upperback 6.78682 1.81312 6.67749
thorax -0.18183 1.17868 5.92871
lowerneck -1.93422 -15.5652 -5.71582
upperneck 8.26064 -21.1329 8.65492
head 4.32659 -10.2385 2.32838
lclavicle 3.29983e-14 -3.57812e-14 0
lhumerus -45.9777 -11.2074 102.842
lradius 55.1945 -0 0
lwrist 31.1046 0 0
lhand -24.546 -2.80594 -0.00286276
lfingers 7.12502 -0 0
lthumb 1.95 27.1644 -0.00278747
rclavicle 3.29983e-14 -3.57812e-14 0
rhumerus 7.0094 19.7574 -88.7061
rradius 134.688 -0 0
rwrist -44.7505 0 0
rhand -29.1471 -22.7879 0.00115683
rfingers 7.12502 -0 0
rthumb -2.49377 -52.7526 0.00110241
549
root 8.26967 14.1166 -3.45994 179.891 48.2971 177.247
lfemur -32.4142 -5.054 -15.3924
ltibia 85.7247 -0 0
lfoot -39.2855 -12.0533 0.0328879
ltoes -3.64857 0 0
rfemur -48.9115 -7.98161 -1.87532
rtibia 62.5975 -0 0
rfoot -8.53128 1.22971 0.181409
rtoes -38.9123 0 0
lowerback 12.5118 0.487539 1.36304
upperback 6.60143 1.68446 6.55014
thorax -0.231846 1.1015 5.89419
lowerneck -2.03707 -15.4916 -5.65071
upperneck 8.3185 -21.0287 8.5008
head 4.33141 -10.1889 2.27694
lclavicle 3.29983e-14 -3.57812e-14 0
lhumerus -45.9452 -11.2295 102.653
lradius 55.1698 -0 0
lwrist 30.6184 0 0
lhand -24.4445 -2.96748 -0.00543933
lfingers 7.12502 -0 0
lthumb 2.04804 27.0016 -0.00529627
rclavicle 3.29983e-14 -3.57812e-14 0
rhumerus 7.93253 19.7343 -88.0316
rradius 134.657 -0 0
rwrist -44.7095 0 0
rhand -29.0312 -22.7307 0.002198
rfingers 7.12502 -0 0
rthumb -2.38184 -52.6962 0.00209459
550
root 8.23321 14.2127 -3.46509 -179.827 49.2466 177.316
lfemur -31.8002 -4.63525 -15.554
ltibia 84.1167 -0 0
lfoot -39.1326 -11.4058 0.0467438
ltoes -3.67124 0 0
rfemur -48.8165 -7.90835 -1.388
rtibia 61.1347 -0 0
rfoot -7.41754 1.71714 0.257948
rtoes -38.8221 0 0
lowerback 12.275 0.428105 1.21381
upperback 6.41634 1.55539 6.42321
thorax -0.281813 1.0243 5.85973
lowerneck -2.1398 -15.4178 -5.58576
upperneck 8.37601 -20.9244 8.34689
head 4.33619 -10.1393 2.22551
lclavicle 3.29983e-14 -3.57812e-14 0
lhumerus -45.9128 -11.2516 102.463
lradius 55.1451 -0 0
lwrist 30.1321 0 0
lhand -24.343 -3.12902 -0.00772969
lfingers 7.12502 -0 0
lthumb 2.14608 26.8387 -0.00752639
rclavicle 3.29983e-14 -3.57812e-14 0
rhumerus 8.85515 19.7011 -87.3577
rradius 134.625 -0 0
rwrist -44.6686 0 0
rhand -28.9153 -22.6735 0.00312349
rfingers 7.12502 -0 0
rthumb -2.2699 -52.6397 0.00297654
551
root 8.19674 14.3087 -3.47023 -179.538 50.196 177.394
lfemur -31.1878 -4.21481 -15.7109
ltibia 82.5086 -0 0
lfoot -38.9797 -10.7583 0.0588719
ltoes -3.6939 0 0
rfemur -48.7209 -7.83589 -0.900636
rtibia 59.6719 -0 0
rfoot -6.30318 2.20596 0.324996
rtoes -38.7318 0 0
lowerback 12.0383 0.368055 1.06482
upperback 6.23155 1.42591 6.2967
thorax -0.331733 0.947068 5.82534
lowerneck -2.24241 -15.3439 -5.52097
upperneck 8.43319 -20.8199 8.19321
head 4.34092 -10.0897 2.1741
lclavicle 3.29983e-14 -3.57812e-14 0
lhumerus -45.8802 -11.2735 102.273
lradius 55.1204 -0 0
lwrist 29.6459 0 0
lhand -24.2414 -3.29057 -0.0097338
lfingers 7.12502 -0 0
lthumb 2.24413 26.6758 -0.0094778
rclavicle 3.29983e-14 -3.57812e-14 0
rhumerus 9.77707 19.6576 -86.6847
rradius 134.594 -0 0
rwrist -44.6276 0 0
rhand -28.7994 -22.6164 0.00393331
rfingers 7.12502 -0 0
rthumb -2.15797 -52.5833 0.00374826
552
root 8.16028 14.4048 -3.47537 -179.24 51.145 177.481
lfemur -30.5769 -3.79271 -15.8632
ltibia 80.9006 -0 0
lfoot -38.8266 -10.1108 0.0692704
ltoes -3.71657 0 0
rfemur -48.6247 -7.76424 -0.413237
rtibia 58.2091 -0 0
rfoot -5.18828 2.69601 0.382522
rtoes -38.6415 0 0
lowerback 11.8018 0.30739 0.916082
upperback 6.04706 1.29603 6.17063
thorax -0.381606 0.869805 5.79101
lowerneck -2.34489 -15.2699 -5.45634
upperneck 8.49003 -20.7153 8.03975
head 4.34561 -10.0401 2.1227
lclavicle 3.29983e-14 -3.57812e-14 0
lhumerus -45.8475 -11.2954 102.083
lradius 55.0957 -0 0
lwrist 29.1596 0 0
lhand -24.1399 -3.45212 -0.0114517
lfingers 7.12502 -0 0
lthumb 2.34218 26.513 -0.0111505
rclavicle 3.29983e-14 -3.57812e-14 0
rhumerus 10.6981 19.6039 -86.0126
rradius 134.562 -0 0
rwrist -44.5867 0 0
rhand -28.6835 -22.5592 0.00462745
rfingers 7.12502 -0 0
rthumb -2.04604 -52.5269 0.00440974
553
root 8.12382 14.5008 -3.48051 -178.934 52.0938 177.578
lfemur -29.9674 -3.36903 -16.0109
ltibia 79.2926 -0 0
lfoot -38.6734 -9.46325 0.077938
ltoes -3.73924 0 0
rfemur -48.5279 -7.69341 0.0742007
rtibia 56.7464 -0 0
rfoot -4.07292 3.18708 0.4305
rtoes -38.5512 0 0
lowerback 11.5654 0.246113 0.767596
upperback 5.86286 1.16574 6.04497
thorax -0.431431 0.792512 5.75676
lowerneck -2.44724 -15.1957 -5.39188
upperneck 8.54652 -20.6105 7.8865
head 4.35025 -9.99047 2.07131
lclavicle 3.29983e-14 -3.57812e-14 0
lhumerus -45.8148 -11.3171 101.893
lradius 55.071 -0 0
lwrist 28.6734 0 0
lhand -24.0384 -3.61367 -0.0128832
lfingers 7.12502 -0 0
lthumb 2.44024 26.3501 -0.0125444
rclavicle 3.29983e-14 -3.57812e-14 0
rhumerus 11.6181 19.5401 -85.3418
rradius 134.53 -0 0
rwrist -44.5458 0 0
rhand -28.5676 -22.502 0.0052059
rfingers 7.12502 -0 0
rthumb -1.9341 -52.4704 0.00496098
554
root 8.08735 14.5969 -3.48566 -178.619 53.0422 177.686
lfemur -29.3592 -2.9438 -16.1541
ltibia 77.6846 -0 0
lfoot -38.5201 -8.81568 0.0848734
ltoes -3.76191 0 0
rfemur -48.4305 -7.62339 0.561678
rtibia 55.2836 -0 0
rfoot -2.95719 3.67899 0.468908
rtoes -38.4609 0 0
lowerback 11.3292 0.184223 0.619366
upperback 5.67896 1.03505 5.91974
thorax -0.481209 0.71519 5.72257
lowerneck -2.54948 -15.1215 -5.32757
upperneck 8.60268 -20.5056 7.73347
head 4.35484 -9.94085 2.01993
lclavicle 3.29983e-14 -3.57812e-14 0
lhumerus -45.782 -11.3387 101.704
lradius 55.0463 -0 0
lwrist 28.1871 0 0
lhand -23.9368 -3.77523 -0.0140285
lfingers 7.12502 -0 0
lthumb 2.5383 26.1872 -0.0136596
rclavicle 3.29983e-14 -3.57812e-14 0
rhumerus 12.5368 19.4662 -84.6725
rradius 134.499 -0 0
rwrist -44.5048 0 0
rhand -28.4517 -22.4448 0.00566867
rfingers 7.12502 -0 0
rthumb -1.82217 -52.414 0.00540197
555
root 8.05089 14.693 -3.4908 -178.294 53.9902 177.804
lfemur -28.7523 -2.51708 -16.2926
ltibia 76.0766 -0 0
lfoot -38.3667 -8.16809 0.0900758
ltoes -3.78458 0 0
rfemur -48.3325 -7.5542 1.04919
rtibia 53.8208 -0 0
rfoot -1.84116 4.17156 0.49773
rtoes -38.3707 0 0
lowerback 11.0932 0.121723 0.471392
upperback 5.49535 0.903953 5.79494
thorax -0.530941 0.637838 5.68845
lowerneck -2.65159 -15.0472 -5.26342
upperneck 8.65851 -20.4005 7.58065
head 4.35939 -9.89122 1.96856
lclavicle 3.29983e-14 -3.57812e-14 0
lhumerus -45.7491 -11.3602 101.514
lradius 55.0216 -0 0
lwrist 27.7009 0 0
lhand -23.8353 -3.93679 -0.0148875
lfingers 7.12502 -0 0
lthumb 2.63637 26.0243 -0.0144959
rclavicle 3.29983e-14 -3.57812e-14 0
rhumerus 13.4541 19.3821 -84.0048
rradius 134.467 -0 0
rwrist -44.4639 0 0
rhand -28.3358 -22.3876 0.00601574
rfingers 7.12502 -0 0
rthumb -1.71023 -52.3576 0.00573272
